<svg height="656" viewBox="0 0 492.493 492" width="656" xmlns="http://www.w3.org/2000/svg"><path d="M304.14 82.473L33.165 353.469a10.799 10.799 0 00-2.816 4.949L.313 478.973a10.716 10.716 0 002.816 10.136 10.675 10.675 0 007.527 3.114 10.6 10.6 0 002.582-.32l120.555-30.04a10.655 10.655 0 004.95-2.812l271-270.977zm0 0M476.875 45.523L446.711 15.36c-20.16-20.16-55.297-20.14-75.434 0l-36.949 36.95 105.598 105.597 36.949-36.949c10.07-10.066 15.617-23.465 15.617-37.715s-5.547-27.648-15.617-37.719zm0 0"/></svg>