<svg version="1" xmlns="http://www.w3.org/2000/svg" width="1240" height="1240" viewBox="0 0 930.000000 930.000000"><path d="M0 465v465h930V0H0v465zm367.6-254c11.5 4 21 12.2 25.4 22.2 1.5 3.5 27 119.3 27 122.9 0 .5-.9.9-2 .9s-11.2 4.6-22.4 10.2l-20.4 10.2-18.7-9c-12.3-5.8-19-9.6-19.6-10.9-2.1-5.1-21.9-102.1-21.9-107.4 0-10.6 3.8-19.9 11.4-27.9 10.9-11.5 27.3-15.9 41.2-11.2zm179.7 25.1c10.4 5.3 12.3 17 4.2 24.9l-3.6 3.5-16.7.3c-16.1.3-16.8.2-20.1-2-9.7-6.6-9-21.1 1.1-26.1 4-2 31.5-2.4 35.1-.6zm30.2 61.8c2.2 1 5.4 3.4 7.2 5.2 5.9 6.2 6.3 8.4 6.3 33.9v23l-2.9 1.8c-1.6 1-9.6 4.9-17.6 8.7l-14.7 6.9-20.4-10.2c-15.7-7.8-21.3-10.2-24.4-10.2-3.1 0-8.3 2.2-22 9-9.9 4.9-18.4 9-19 9-1.6 0-1.2-58.6.4-63.3 2.2-5.9 6.4-10.7 12-13.3l5.1-2.4h43c39.8 0 43.3.2 47 1.9zM349.6 399.2c17.3 8.4 21.7 10.2 25.4 10.2 3.7-.1 8.2-2 24.8-10.2L420 389l20.3 10.2c26.6 13.4 23.8 13.4 50.4 0L511 389l21.2 10.6c17.9 8.9 21.9 10.5 24.8 10.1 1.9-.2 12.9-5 24.3-10.5l20.9-10.1 14.1 7.1c7.8 3.9 14.5 7.6 14.9 8.2.5.6.7 68.1.5 150.1l-.2 149-2.2 4c-1.2 2.2-3.6 5.4-5.5 7.2-7 6.8 4.6 6.3-158.5 6.3-141 0-148-.1-151.8-1.9-5-2.2-9.6-6.7-12.1-11.8-1.8-3.7-1.9-8.8-2.2-153.5L299 404l14.7-7.4c8.2-4.1 14.9-7.5 14.9-7.5.1-.1 9.6 4.5 21 10.1z"/><path d="M441 496.6c-49.4 6.1-83.5 23-94.1 47-3.1 6.9-3.8 19.3-1.4 26.5 8.4 25.3 40.3 43 90 50.1 5 .7 18.3 1.3 30 1.3 27.7 0 44.7-2.4 66-9.2 34.1-10.9 53.9-29.1 55.3-50.8 1.9-29.6-28.7-53.1-81.4-62.6-9.6-1.8-16.5-2.2-36.4-2.4-13.5-.2-26.1-.1-28 .1zm42.5 30.4c13.6 1.3 24.9 3.3 36.2 6.6 17.5 5 32.7 14.4 36 22.1 1.2 3 1.2 3.8-.3 6.9-5 10.4-27.1 20.9-55.4 26.1-7.4 1.4-14.9 1.8-34.5 1.8-21.7 0-26.5-.3-36.6-2.2-21.3-4.1-38.9-11.2-48.3-19.4-8.5-7.5-8.3-12.4.7-20.5 17.5-15.8 62.1-25.1 102.2-21.4z"/></svg>